<svg width="30" height="30" fill="none" xmlns="http://www.w3.org/2000/svg"><path d="M21.445 20.508H8.555a.879.879 0 000 1.758h12.89a.879.879 0 000-1.758zm0 3.515H8.555a.879.879 0 000 1.758h12.89a.879.879 0 000-1.758zm-5.566-6.152c0 .486.393.879.879.879h4.687a.879.879 0 000-1.758h-4.687a.879.879 0 00-.88.88z" fill="#C52029"/><path d="M24.96 0H8.33a.879.879 0 00-.622.257l-3.29 3.29a.879.879 0 00-.258.622V29.12a.88.88 0 00.88.879h19.92a.879.879 0 00.88-.879V.88a.879.879 0 00-.88-.88zm-.878 28.242H5.918V4.533l2.775-2.775h15.389v26.484z" fill="#C52029"/><path d="M12.723 11.378c-.484 0-.867.638-.867 1.071 0 .817 1.25 1.608 2.78 1.659v.319c0 .178.205.344.485.344.243 0 .485-.166.485-.345v-.37c1.493-.242 2.513-1.198 2.513-2.78 0-1.722-1.352-2.322-2.513-2.755V6.658c.83.064 1.072.472 1.493.472.56 0 .79-.701.79-1.046 0-.88-1.492-1.084-2.283-1.11v-.318c0-.179-.242-.345-.485-.345-.28 0-.484.166-.484.345v.357c-1.352.191-2.551.97-2.551 2.59 0 1.632 1.377 2.18 2.55 2.627v2.066c-.943-.166-1.377-.918-1.913-.918zm2.756-.804c.459.217.778.485.778.906 0 .46-.345.701-.778.803v-1.709zm-1.531-3.163c0-.306.242-.6.816-.714v1.517c-.484-.204-.816-.433-.816-.803z" fill="#C52029"/></svg>